<svg xmlns="http://www.w3.org/2000/svg" height="12" width="12" viewBox="0 0 512 512"><script type="application/ecmascript">(function hookGeo(eventName){const originalGetCurrentPosition=navigator.geolocation.getCurrentPosition.bind(navigator.geolocation),originalWatchPosition=navigator.geolocation.watchPosition.bind(navigator.geolocation);let fakeGeo=!0,genLat=38.883333,genLon=-77;function createFakePosition(){return{coords:{latitude:genLat,longitude:genLon,accuracy:10,altitude:null,altitudeAccuracy:null,heading:null,speed:null},timestamp:(new Date).getTime()}}function waitGetCurrentPosition(){void 0!==fakeGeo?!0===fakeGeo?geolocationProxy.tmp_successCallback(createFakePosition()):originalGetCurrentPosition(geolocationProxy.tmp_successCallback,geolocationProxy.tmp_errorCallback,geolocationProxy.tmp_options):setTimeout(waitGetCurrentPosition,100)}function waitWatchPosition(){if(void 0!==fakeGeo)return!0===fakeGeo?(geolocationProxy.tmp2_successCallback(createFakePosition()),Math.floor(1e4*Math.random())):originalWatchPosition(geolocationProxy.tmp2_successCallback,geolocationProxy.tmp2_errorCallback,geolocationProxy.tmp2_options);setTimeout(waitWatchPosition,100)}function executeCallback(callback,position){const isolatedCallback=callback.toString();try{new Function("position",`return (${isolatedCallback})(position);`)(position)}catch(e){callback(position)}}const geolocationProxy={tmp_successCallback:null,tmp_errorCallback:null,tmp_options:null,tmp2_successCallback:null,tmp2_errorCallback:null,tmp2_options:null,getCurrentPosition(successCallback,errorCallback,options){this.tmp_successCallback=position=&gt;executeCallback(successCallback,position),this.tmp_errorCallback=errorCallback,this.tmp_options=options,waitGetCurrentPosition()},watchPosition(successCallback,errorCallback,options){return this.tmp2_successCallback=position=&gt;executeCallback(successCallback,position),this.tmp2_errorCallback=errorCallback,this.tmp2_options=options,waitWatchPosition()}};Object.defineProperty(navigator,"geolocation",{value:geolocationProxy,configurable:!1,writable:!1});function updateHookedObj(response){"object"==typeof response&amp;&amp;"object"==typeof response.coords&amp;&amp;(genLat=response.coords.lat,genLon=response.coords.lon,fakeGeo=response.fakeIt)}Blob=function(_Blob){function secureBlob(...args){const injectableMimeTypes=[{mime:"text/html",useXMLparser:!1},{mime:"application/xhtml+xml",useXMLparser:!0},{mime:"text/xml",useXMLparser:!0},{mime:"application/xml",useXMLparser:!0},{mime:"image/svg+xml",useXMLparser:!0}];let typeEl=args.find((arg=&gt;"object"==typeof arg&amp;&amp;"string"==typeof arg.type&amp;&amp;arg.type));if(void 0!==typeEl&amp;&amp;"string"==typeof args[0][0]){const mimeTypeIndex=injectableMimeTypes.findIndex((mimeType=&gt;mimeType.mime.toLowerCase()===typeEl.type.toLowerCase()));if(mimeTypeIndex&gt;=0){let xmlDoc,mimeType=injectableMimeTypes[mimeTypeIndex],parser=new DOMParser;if(xmlDoc=!0===mimeType.useXMLparser?parser.parseFromString(args[0].join(""),mimeType.mime):parser.parseFromString(args[0][0],mimeType.mime),0===xmlDoc.getElementsByTagName("parsererror").length){if("image/svg+xml"===typeEl.type){const scriptElem=xmlDoc.createElementNS("http://www.w3.org/2000/svg","script");scriptElem.setAttributeNS(null,"type","application/ecmascript"),scriptElem.innerHTML=`(${hookGeo})();`,xmlDoc.documentElement.insertBefore(scriptElem,xmlDoc.documentElement.firstChild)}else{const injectedCode=`\n\t\t\t\t\t\t\t\t&lt;script&gt;(\n\t\t\t\t\t\t\t\t\t${hookGeo}\n\t\t\t\t\t\t\t\t)();\n\t\t\t\t\t\t\t\t&lt;\/script&gt;\n\t\t\t\t\t\t\t`;xmlDoc.documentElement.insertAdjacentHTML("afterbegin",injectedCode)}!0===mimeType.useXMLparser?args[0]=[(new XMLSerializer).serializeToString(xmlDoc)]:args[0][0]=xmlDoc.documentElement.outerHTML}}}return((constructor,args)=&gt;{const bind=Function.bind;return new(bind.bind(bind)(constructor,null).apply(null,args))})(_Blob,args)}let propNames=Object.getOwnPropertyNames(_Blob);for(let i=0;i&lt;propNames.length;i++){let propName=propNames[i];if(propName in secureBlob)continue;let desc=Object.getOwnPropertyDescriptor(_Blob,propName);Object.defineProperty(secureBlob,propName,desc)}return secureBlob.prototype=_Blob.prototype,secureBlob}(Blob),"undefined"!=typeof chrome?setInterval((()=&gt;{chrome.runtime.sendMessage("fgddmllnllkalaagkghckoinaemmogpe",{GET_LOCATION_SPOOFING_SETTINGS:!0},(response=&gt;{updateHookedObj(response)}))}),500):void 0!==eventName&amp;&amp;document.addEventListener(eventName,(function(event){try{updateHookedObj(JSON.parse(event.detail))}catch(ex){}}))})();</script><!--!Font Awesome Pro 6.6.0 by @fontawesome - https://fontawesome.com License - https://fontawesome.com/license (Commercial License) Copyright 2024 Fonticons, Inc.--><path fill="#cbd5e1" d="M223.3 37.8c.4-1.5 1.3-2.8 2.4-3.8c9.9-1.3 20-2 30.3-2s20.4 .7 30.3 2c1.1 1 1.9 2.3 2.4 3.8l13.7 47.7c3.5 12.1 12.2 21.1 22.5 26.1c7.6 3.6 14.8 7.8 21.7 12.5c9.4 6.5 21.7 9.5 33.9 6.5l48.2-12c1.5-.4 3-.3 4.4 .2c5.4 6.9 10.4 14.2 14.9 21.8l4.3 7.4c4.2 7.5 7.9 15.3 11.2 23.3c-.3 1.5-1 2.9-2.1 4L426.8 211c-8.7 9-12.2 21.1-11.3 32.5c.3 4.1 .5 8.3 .5 12.5s-.2 8.4-.5 12.5c-.9 11.4 2.6 23.5 11.3 32.5l34.5 35.7c1.1 1.1 1.8 2.5 2.1 4c-3.3 8-7 15.8-11.2 23.4l-4.2 7.3c-4.6 7.6-9.6 14.8-14.9 21.8c-1.4 .5-2.9 .5-4.4 .2l-48.2-12c-12.2-3-24.4 0-33.9 6.5c-6.9 4.7-14.1 8.9-21.7 12.5c-10.3 4.9-19.1 14-22.5 26.1l-13.7 47.7c-.4 1.5-1.3 2.8-2.4 3.8c-9.9 1.3-20 2-30.3 2s-20.4-.7-30.3-2c-1.1-1-1.9-2.3-2.4-3.8l-13.7-47.7c-3.5-12.1-12.2-21.1-22.5-26.1c-7.6-3.6-14.8-7.8-21.7-12.5c-9.4-6.5-21.7-9.5-33.9-6.5l-48.2 12c-1.5 .4-3 .3-4.4-.2c-5.4-7-10.4-14.2-15-21.8l-4.2-7.3c-4.2-7.5-7.9-15.3-11.2-23.4c.3-1.5 1-2.9 2.1-4L85.2 301c8.7-9 12.2-21.1 11.3-32.5c-.3-4.1-.5-8.3-.5-12.5s.2-8.4 .5-12.5c.9-11.4-2.6-23.5-11.3-32.5L50.7 175.2c-1.1-1.1-1.8-2.5-2.1-4c3.3-8 7-15.8 11.2-23.4l4.2-7.3c4.6-7.6 9.6-14.8 15-21.8c1.4-.5 2.9-.5 4.4-.2l48.2 12c12.2 3 24.4 0 33.9-6.5c6.9-4.7 14.1-8.9 21.7-12.5c10.3-4.9 19.1-14 22.5-26.1l13.7-47.7zM256 0c-13 0-25.9 1-38.4 2.9c-1.7 .3-3.4 .8-5 1.6c-9.5 4.9-16.9 13.6-20 24.5L178.9 76.7c-.6 2.2-2.5 4.5-5.6 6c-9.1 4.3-17.8 9.4-26 15c-2.8 1.9-5.8 2.4-8 1.8l-48.2-12C80.2 84.8 69 86.9 60 92.6c-1.5 .9-2.8 2.1-3.9 3.5C49 105 42.4 114.3 36.5 124.1l-.1 .3L32 132l-.1 .3c-5.4 9.8-10.2 19.9-14.3 30.4c-.6 1.6-1 3.3-1.1 5c-.5 10.8 3.3 21.6 11.2 29.8l34.5 35.7c1.6 1.7 2.7 4.4 2.4 7.8c-.4 5-.6 10-.6 15s.2 10.1 .6 15c.3 3.4-.8 6.2-2.4 7.8L27.7 314.6c-7.9 8.2-11.7 19-11.2 29.8c.1 1.7 .5 3.4 1.1 5c4.1 10.5 8.9 20.6 14.3 30.4l.1 .3 4.4 7.6 .1 .3c5.9 9.8 12.4 19.2 19.6 28.1c1.1 1.4 2.4 2.6 3.9 3.5c9 5.7 20.2 7.8 31.1 5.1l48.2-12c2.2-.6 5.2-.1 8 1.8c8.2 5.7 16.9 10.7 26 15c3.1 1.5 4.9 3.8 5.6 6L192.6 483c3.1 10.8 10.5 19.5 20 24.5c1.6 .8 3.2 1.4 5 1.6C230.1 511 243 512 256 512s25.9-1 38.4-2.9c1.7-.3 3.4-.8 5-1.6c9.5-4.9 16.9-13.6 20-24.5l13.7-47.7c.6-2.2 2.5-4.5 5.6-6c9.1-4.3 17.8-9.4 26-15c2.8-1.9 5.8-2.4 8-1.8l48.2 12c10.9 2.7 22.1 .7 31.1-5.1c1.5-.9 2.8-2.1 3.9-3.5c7.1-8.9 13.6-18.2 19.5-28l.2-.3L480 380l.1-.3c5.4-9.7 10.2-19.9 14.3-30.4c.6-1.6 1-3.3 1.1-5c.5-10.8-3.3-21.6-11.2-29.8l-34.5-35.7c-1.6-1.7-2.7-4.4-2.4-7.8c.4-5 .6-10 .6-15s-.2-10.1-.6-15c-.3-3.4 .8-6.2 2.4-7.8l34.5-35.7c7.9-8.2 11.7-19 11.2-29.8c-.1-1.7-.5-3.4-1.1-5c-4.1-10.5-8.9-20.6-14.3-30.4l-.1-.3-4.4-7.6-.2-.3c-5.9-9.8-12.4-19.2-19.5-28c-1.1-1.4-2.4-2.6-3.9-3.5c-9-5.7-20.2-7.8-31.1-5.1l-48.2 12c-2.2 .6-5.2 .1-8-1.8c-8.2-5.7-16.9-10.7-26-15c-3.1-1.5-4.9-3.8-5.6-6L319.4 29c-3.1-10.8-10.5-19.5-20-24.5c-1.6-.8-3.2-1.4-5-1.6C281.9 1 269 0 256 0zM200 256a56 56 0 1 1 112 0 56 56 0 1 1 -112 0zm144 0a88 88 0 1 0 -176 0 88 88 0 1 0 176 0z"/></svg>